<?xml version="1.0" standalone="no"?>
<!DOCTYPE svg PUBLIC "-//W3C//DTD SVG 20010904//EN"
 "http://www.w3.org/TR/2001/REC-SVG-20010904/DTD/svg10.dtd">
<svg version="1.0" xmlns="http://www.w3.org/2000/svg"
 width="1200.000000pt" height="1200.000000pt" viewBox="0 0 1200.000000 1200.000000"
 preserveAspectRatio="xMidYMid meet">

<g transform="translate(0.000000,1200.000000) scale(0.100000,-0.100000)"
fill="#000000" stroke="none">
<path d="M7763 8708 c-361 -362 -527 -534 -538 -560 -12 -31 -15 -97 -15 -405
l0 -368 -650 -650 c-459 -459 -650 -657 -650 -672 0 -28 25 -53 53 -53 16 0
207 185 671 650 l648 650 380 0 c307 0 384 3 406 14 40 20 1055 1041 1067
1072 8 22 6 29 -14 45 -22 18 -45 19 -392 19 l-369 0 0 373 c0 350 -1 375 -18
390 -10 10 -27 17 -38 17 -12 0 -213 -194 -541 -522z m508 -345 c9 -10 80 -13
354 -13 l343 0 -468 -470 -468 -470 -356 0 -356 0 0 351 c0 228 -3 348 -10
344 -5 -3 -7 0 -4 8 3 8 15 19 27 24 12 6 225 215 472 465 l450 454 3 -340 c1
-230 6 -344 13 -353z"/>
<path d="M5707 8959 c-1028 -99 -1915 -705 -2362 -1614 -217 -441 -318 -909
-302 -1400 15 -430 108 -803 298 -1185 138 -278 299 -506 514 -729 412 -427
930 -718 1485 -836 866 -182 1770 32 2450 580 128 104 353 328 449 450 364
458 576 996 632 1606 21 235 -10 634 -70 894 -28 119 -106 356 -139 425 -22
45 -32 56 -55 58 -35 4 -60 -15 -54 -42 3 -12 30 -91 60 -176 102 -289 146
-533 154 -855 13 -502 -83 -933 -303 -1365 -344 -677 -924 -1167 -1659 -1403
-313 -100 -632 -141 -988 -126 -1024 43 -1965 674 -2408 1615 -175 370 -259
753 -260 1190 -1 250 25 462 86 704 141 555 469 1084 895 1438 493 411 1070
640 1691 671 420 21 773 -37 1206 -199 71 -27 93 -19 93 31 0 38 -20 50 -176
105 -276 98 -532 148 -841 164 -212 11 -270 11 -396 -1z"/>
<path d="M5790 7524 c-83 -10 -239 -48 -333 -81 -348 -120 -652 -390 -822
-728 -108 -218 -155 -419 -155 -673 0 -225 36 -395 129 -603 132 -296 396
-571 690 -719 113 -56 294 -115 419 -136 151 -24 417 -15 562 19 348 83 637
262 836 518 132 170 210 321 268 521 52 179 70 425 45 605 -15 108 -62 289
-90 348 -20 42 -29 50 -55 53 -59 6 -62 -15 -20 -146 62 -197 70 -247 69 -452
0 -204 -15 -298 -75 -469 -148 -420 -500 -744 -938 -864 -317 -86 -683 -52
-963 89 -294 149 -510 369 -648 659 -96 202 -135 397 -126 634 7 177 26 277
82 427 76 201 171 350 320 499 373 374 911 497 1432 328 94 -31 114 -35 127
-24 24 20 20 68 -6 85 -32 20 -199 73 -288 92 -73 15 -385 27 -460 18z"/>
</g>
</svg>
