<?xml version="1.0" standalone="no"?>
<!DOCTYPE svg PUBLIC "-//W3C//DTD SVG 20010904//EN"
 "http://www.w3.org/TR/2001/REC-SVG-20010904/DTD/svg10.dtd">
<svg version="1.0" xmlns="http://www.w3.org/2000/svg"
 width="1200.000000pt" height="1200.000000pt" viewBox="0 0 1200.000000 1200.000000"
 preserveAspectRatio="xMidYMid meet">

<g transform="translate(0.000000,1200.000000) scale(0.100000,-0.100000)"
fill="#000000" stroke="none">
<path d="M6135 9800 c-266 -22 -515 -80 -735 -172 -220 -92 -422 -208 -595
-341 -103 -79 -116 -98 -90 -127 29 -32 55 -24 141 44 281 225 673 400 1052
470 152 29 393 40 556 27 589 -46 1105 -288 1531 -718 120 -120 146 -138 173
-111 30 30 13 60 -100 176 -395 401 -904 662 -1438 736 -140 20 -359 27 -495
16z"/>
<path d="M5700 9193 c-14 -2 -86 -18 -160 -35 -102 -24 -167 -32 -268 -36
-119 -4 -134 -6 -143 -24 -17 -32 12 -64 66 -72 62 -10 144 -1 370 39 248 44
305 49 455 36 312 -27 508 -87 719 -218 76 -48 91 -49 115 -10 14 22 -6 56
-52 86 -245 162 -550 242 -907 240 -93 -1 -181 -4 -195 -6z"/>
<path d="M4632 8988 c-17 -17 -17 -779 0 -796 19 -19 66 -15 78 7 6 13 10 154
10 391 0 237 -4 378 -10 391 -12 22 -59 26 -78 7z"/>
<path d="M8545 8644 c-150 -27 -347 -98 -425 -154 -31 -22 -39 -57 -18 -78 19
-19 44 -14 108 18 193 97 346 133 570 133 217 0 390 -38 591 -130 73 -33 78
-37 60 -50 -35 -24 -183 -83 -260 -104 -280 -73 -516 -64 -857 33 -50 14 -71
7 -80 -27 -9 -37 9 -52 95 -79 366 -116 780 -91 1095 65 43 21 80 39 82 39 2
0 4 -54 4 -119 0 -137 5 -128 -115 -189 -253 -127 -556 -132 -1023 -17 -173
42 -189 43 -202 10 -20 -53 -8 -60 202 -110 239 -57 391 -78 568 -78 233 1
389 39 554 137 123 74 116 59 116 256 0 133 -3 178 -15 200 -28 55 -240 160
-420 209 -183 51 -458 66 -630 35z"/>
<path d="M2835 8431 c-281 -83 -506 -292 -625 -577 -33 -80 -31 -106 11 -119
29 -10 49 14 84 99 85 206 272 394 482 482 l68 29 686 5 c736 5 719 4 719 56
0 56 26 54 -683 53 l-652 -1 -90 -27z"/>
<path d="M8031 8354 c-20 -14 -21 -24 -21 -159 0 -117 3 -146 16 -159 22 -22
50 -20 68 6 21 29 23 275 4 300 -20 24 -44 28 -67 12z"/>
<path d="M9750 8265 c-10 -13 -6 -43 23 -168 97 -410 127 -698 127 -1212 0
-311 -17 -716 -50 -1190 -5 -77 -14 -491 -20 -920 -6 -429 -13 -813 -16 -853
l-6 -73 -72 -58 c-88 -69 -175 -119 -276 -157 -67 -25 -88 -28 -195 -28 -80 0
-165 8 -255 24 -131 23 -154 24 -735 25 -330 1 -805 7 -1055 14 -260 7 -566 9
-714 5 -234 -6 -261 -9 -277 -25 -21 -21 -23 -37 -9 -59 8 -13 61 -15 402 -12
216 2 564 -2 773 -8 209 -7 605 -12 880 -12 471 0 511 -1 685 -24 215 -28 385
-31 472 -9 77 20 209 84 295 141 38 25 70 47 73 49 3 2 5 -22 5 -52 0 -62 15
-80 57 -70 32 8 38 29 38 133 l0 80 54 68 c29 37 73 105 97 151 50 96 48 120
-12 120 -32 0 -36 -4 -69 -67 -44 -84 -65 -107 -57 -63 4 17 9 293 12 615 7
687 17 1009 47 1480 29 452 31 1095 6 1360 -27 280 -110 719 -149 792 -12 22
-61 24 -79 3z"/>
<path d="M5060 8029 c-366 -11 -589 -36 -701 -78 -207 -78 -326 -263 -278
-433 11 -42 42 -58 78 -39 19 11 20 17 14 85 -5 65 -3 80 19 128 44 96 116
149 253 183 275 70 1053 79 1550 18 453 -55 672 -212 816 -582 65 -169 233
-739 353 -1196 65 -250 113 -465 166 -746 l39 -207 -34 -128 c-60 -229 -171
-542 -269 -763 -44 -98 -46 -105 -31 -127 10 -15 25 -24 41 -24 22 0 30 11 66
88 59 128 180 439 224 577 l38 120 7 -55 c4 -30 13 -134 20 -230 18 -273 0
-434 -65 -565 -56 -113 -104 -153 -248 -213 -34 -14 -37 -50 -8 -77 17 -16 25
-16 64 -5 24 7 72 30 105 52 164 107 243 278 258 563 6 120 -4 267 -43 587
-23 192 -24 211 -10 265 22 86 73 381 90 518 30 238 39 374 39 590 -1 500 -74
790 -248 983 -45 49 -63 62 -85 62 -28 0 -50 -22 -50 -49 0 -5 27 -40 60 -77
98 -111 160 -252 195 -449 23 -124 32 -583 16 -793 -15 -195 -68 -598 -78
-589 -2 2 -17 71 -33 153 -58 287 -168 718 -310 1214 -167 584 -246 765 -405
924 -84 85 -174 144 -287 189 -236 95 -751 143 -1328 126z"/>
<path d="M2358 7699 c-17 -9 -18 -46 -18 -537 0 -556 0 -552 45 -552 45 0 45
-4 45 552 0 511 -1 528 -19 538 -24 12 -31 12 -53 -1z"/>
<path d="M7147 7692 c-41 -45 -16 -71 105 -111 427 -140 886 -199 1462 -188
355 7 554 28 829 89 78 17 102 27 114 45 14 21 14 26 -1 48 -20 30 -15 30
-124 6 -299 -67 -558 -93 -912 -93 -502 -1 -907 53 -1292 172 -88 28 -162 50
-163 50 -1 0 -9 -8 -18 -18z"/>
<path d="M4730 7536 c-180 -32 -354 -91 -528 -177 -160 -80 -185 -103 -158
-144 9 -14 23 -25 30 -25 7 0 79 33 160 74 242 123 447 180 704 195 300 18
566 -33 832 -160 262 -125 481 -299 657 -520 47 -59 93 -111 101 -114 20 -8
62 21 62 44 0 28 -117 176 -231 291 -263 267 -598 450 -972 532 -71 15 -140
21 -307 24 -194 3 -228 1 -350 -20z"/>
<path d="M9186 7218 c-11 -19 -15 -161 -20 -828 -3 -443 -10 -1165 -16 -1605
-8 -697 -7 -803 6 -822 16 -26 42 -29 66 -10 15 11 18 103 28 942 25 2202 25
2316 5 2331 -27 20 -53 17 -69 -8z"/>
<path d="M3590 7079 c-117 -11 -410 -68 -513 -99 -76 -24 -99 -50 -78 -89 14
-26 37 -26 126 -1 112 32 289 67 435 85 164 21 508 16 665 -9 147 -23 305 -58
305 -66 0 -4 -39 -10 -87 -14 -164 -13 -866 -124 -894 -141 -3 -2 -66 1 -139
6 -238 18 -504 -14 -735 -88 -60 -19 -177 -68 -260 -108 -501 -245 -880 -658
-1090 -1187 -51 -131 -51 -158 4 -158 37 0 42 7 90 128 260 654 819 1142 1458
1276 65 13 150 27 188 30 68 6 66 5 -80 -38 -237 -68 -478 -146 -492 -158 -16
-13 -17 -50 -1 -66 19 -19 43 -15 210 38 193 62 506 147 693 190 l140 32 90
-16 c172 -29 440 -123 593 -208 115 -64 263 -169 390 -275 34 -29 66 -53 70
-53 18 0 52 33 52 49 0 37 -192 195 -369 305 -140 86 -264 144 -420 197 -80
26 -138 50 -130 53 57 20 540 88 795 112 l182 17 101 -43 c108 -46 128 -60 86
-60 -111 0 -562 -149 -587 -195 -7 -11 -7 -25 1 -41 14 -33 47 -31 132 7 167
73 410 136 564 146 l80 5 72 -43 c40 -24 71 -45 69 -47 -2 -1 -45 -14 -96 -28
-158 -42 -472 -157 -507 -186 -16 -13 -17 -50 -1 -66 20 -20 48 -14 163 34
124 51 386 134 487 154 66 13 67 13 105 -13 21 -15 60 -46 86 -70 l49 -42
-354 -104 c-194 -57 -363 -110 -375 -118 -27 -16 -30 -55 -7 -74 12 -10 26
-10 67 -1 91 20 718 210 732 222 10 8 36 -13 114 -92 179 -183 369 -444 495
-680 31 -58 64 -109 73 -112 20 -8 63 19 63 40 0 28 -118 247 -196 364 -42 63
-113 162 -158 220 -101 130 -344 376 -454 460 -45 35 -88 75 -95 89 -8 17 -23
28 -42 31 -17 3 -50 19 -74 35 l-45 30 60 5 59 5 0 40 c0 40 0 40 -45 47 -25
4 -90 7 -145 6 -98 0 -102 1 -176 40 -62 33 -73 41 -55 46 11 3 119 6 238 6
183 0 219 2 232 16 20 20 20 48 0 68 -19 20 -160 21 -485 5 l-220 -10 -142 45
c-272 86 -452 115 -752 121 -115 2 -257 -1 -315 -6z"/>
<path d="M3025 6390 c-413 -73 -725 -236 -1001 -522 -436 -453 -630 -1107
-508 -1708 25 -122 82 -286 144 -416 229 -483 648 -852 1141 -1008 131 -42
164 -45 179 -15 26 48 10 61 -137 107 -260 82 -503 225 -697 412 -165 160
-253 273 -358 465 -240 435 -273 972 -91 1459 71 189 155 340 280 504 72 94
247 262 348 334 345 245 821 359 1250 297 398 -57 738 -228 1000 -501 132
-138 219 -261 310 -443 149 -298 214 -585 202 -895 -17 -435 -180 -817 -492
-1148 -250 -265 -596 -459 -940 -528 -98 -19 -118 -37 -90 -80 20 -31 51 -31
180 0 464 113 869 403 1148 823 118 178 227 454 268 678 28 155 30 436 5 596
-113 723 -579 1296 -1230 1514 -210 70 -381 95 -628 94 -127 -1 -214 -7 -283
-19z"/>
<path d="M6345 5107 c-19 -14 -19 -17 -1 -146 52 -379 -3 -717 -169 -1051
l-53 -105 -197 -170 c-108 -93 -201 -172 -206 -173 -5 -2 6 27 25 65 112 224
197 511 227 768 18 153 16 465 -4 595 -16 109 -29 133 -67 123 -42 -11 -44
-24 -25 -200 14 -129 16 -204 11 -332 -7 -175 -18 -263 -32 -268 -5 -2 -146
-75 -314 -162 l-305 -160 0 -33 c0 -26 5 -34 25 -41 22 -8 65 12 298 133 150
78 275 140 278 137 8 -7 -48 -194 -93 -317 -48 -129 -132 -294 -208 -409 -58
-88 -72 -103 -182 -183 -496 -362 -932 -582 -1333 -672 -219 -50 -320 -60
-590 -61 -163 0 -284 5 -335 13 -273 44 -507 115 -733 223 -132 62 -155 66
-174 23 -16 -35 2 -50 127 -109 460 -218 976 -298 1485 -231 441 59 893 245
1373 568 82 55 90 58 106 44 32 -29 59 -19 117 44 31 32 77 86 103 119 28 36
111 112 212 193 91 73 202 164 247 202 63 55 88 70 114 70 29 1 38 9 83 74 35
51 98 116 210 215 88 79 161 151 163 161 5 22 -25 56 -50 56 -11 0 -43 -22
-71 -48 -88 -81 -87 -81 -56 7 75 213 109 411 109 637 0 138 -23 339 -44 384
-13 29 -43 36 -71 17z"/>
<path d="M3448 4975 c-8 -18 -9 -31 -2 -43 12 -18 13 -19 109 -64 170 -81 285
-267 285 -463 0 -203 -122 -388 -221 -335 -32 18 -22 46 41 116 91 100 109
190 63 306 -19 48 -55 60 -86 29 -21 -20 -21 -21 -3 -71 29 -81 17 -127 -53
-203 -72 -77 -81 -94 -81 -151 0 -99 120 -165 224 -122 79 33 138 109 182 237
75 219 16 470 -150 634 -76 74 -188 140 -258 152 -33 5 -39 3 -50 -22z"/>
<path d="M3081 4774 c-187 -93 -142 -374 67 -419 40 -8 62 7 62 45 0 32 -13
45 -57 55 -48 10 -93 66 -93 116 0 83 56 136 133 126 79 -11 122 -90 93 -174
-17 -50 -10 -77 24 -88 48 -15 84 46 83 140 -2 170 -163 273 -312 199z"/>
</g>
</svg>
