<?xml version="1.0" standalone="no"?>
<!DOCTYPE svg PUBLIC "-//W3C//DTD SVG 20010904//EN"
 "http://www.w3.org/TR/2001/REC-SVG-20010904/DTD/svg10.dtd">
<svg version="1.0" xmlns="http://www.w3.org/2000/svg"
 width="1200.000000pt" height="1200.000000pt" viewBox="0 0 1200.000000 1200.000000"
 preserveAspectRatio="xMidYMid meet">

<g transform="translate(0.000000,1200.000000) scale(0.100000,-0.100000)"
fill="#000000" stroke="none">
<path d="M3158 8097 c-59 -22 -124 -64 -154 -99 -64 -76 -99 -208 -76 -289
l10 -36 -71 -34 c-106 -51 -216 -158 -268 -263 -48 -99 -73 -215 -64 -304 7
-65 20 -82 64 -82 30 0 35 17 36 110 1 49 9 110 19 145 47 158 178 290 335
336 65 19 75 42 51 112 -24 67 -25 115 -6 162 56 132 189 187 329 135 99 -37
174 -148 184 -273 6 -72 24 -107 56 -107 74 0 179 -90 193 -166 8 -42 27 -58
59 -50 43 11 50 43 24 111 -29 77 -103 152 -177 179 -45 15 -52 22 -52 45 0
79 -47 183 -115 259 -68 76 -156 116 -260 120 -49 1 -94 -3 -117 -11z"/>
<path d="M8607 8086 c-123 -52 -209 -150 -243 -281 -8 -27 -14 -62 -14 -76 0
-23 -7 -30 -52 -45 -98 -36 -187 -148 -188 -237 0 -31 5 -40 26 -49 36 -17 56
-1 72 56 18 61 73 118 137 140 100 35 99 34 106 113 17 181 134 303 292 303
169 0 283 -172 217 -326 -18 -41 -19 -49 -6 -69 8 -11 34 -27 57 -34 71 -21
154 -70 203 -119 104 -106 147 -208 150 -360 2 -69 6 -96 16 -103 21 -13 43
-11 66 5 29 22 27 174 -4 274 -51 165 -182 313 -328 373 l-52 21 10 36 c27 98
-23 247 -106 318 -65 56 -120 76 -216 81 -73 3 -93 0 -143 -21z"/>
<path d="M4602 8063 c-76 -37 -188 -210 -199 -306 -5 -43 -7 -45 -45 -51 -119
-19 -198 -112 -198 -233 0 -69 12 -93 49 -93 40 0 50 18 50 84 -1 67 17 100
72 129 33 18 60 18 131 1 21 -5 30 -1 44 20 14 22 15 31 5 52 -32 71 11 196
94 273 57 52 107 57 147 14 42 -45 48 -67 48 -165 0 -104 7 -118 55 -118 55 0
71 -34 34 -71 -26 -26 -28 -68 -3 -86 23 -17 23 -17 60 6 87 53 80 176 -14
236 -29 18 -31 25 -32 75 -1 96 -43 178 -114 224 -48 31 -131 35 -184 9z"/>
<path d="M7209 8052 c-63 -41 -101 -114 -107 -209 -4 -56 -8 -74 -21 -78 -10
-3 -32 -20 -50 -39 -59 -61 -49 -163 21 -206 39 -24 39 -24 62 -7 25 18 23 60
-3 86 -37 37 -21 71 34 71 48 0 55 14 55 112 0 100 14 144 55 176 47 37 88 30
143 -25 81 -81 120 -194 92 -263 -10 -25 -10 -34 5 -56 15 -23 20 -25 58 -18
122 23 191 -28 188 -140 -1 -58 11 -76 50 -76 36 0 49 24 49 90 0 120 -82 217
-198 236 -38 6 -40 8 -45 51 -11 96 -125 271 -201 307 -55 26 -134 21 -187
-12z"/>
<path d="M1483 7532 c-98 -35 -163 -94 -204 -186 -24 -55 -34 -150 -21 -197
10 -37 10 -37 -32 -55 -85 -37 -197 -124 -247 -193 -79 -106 -114 -219 -113
-356 1 -83 6 -113 29 -175 15 -41 39 -94 52 -118 14 -24 24 -44 22 -46 -2 -2
-32 -21 -65 -44 -110 -74 -184 -221 -170 -339 12 -98 43 -162 115 -233 37 -36
81 -72 98 -79 l31 -12 -26 -46 c-68 -123 -1 -264 141 -292 76 -16 167 12 184
55 11 29 -14 64 -46 64 -16 0 -32 -4 -35 -9 -10 -16 -78 -20 -112 -6 -33 13
-64 58 -64 92 0 35 39 82 90 108 38 19 50 31 50 49 0 32 -27 52 -81 60 -121
18 -228 126 -245 248 -10 69 17 146 71 206 44 49 131 102 167 102 18 0 38 28
38 52 0 7 -19 38 -41 68 -116 154 -136 336 -54 507 57 122 157 211 284 254 37
13 68 30 77 44 13 20 12 27 -6 66 -50 112 3 250 119 305 56 28 149 30 203 6
107 -47 175 -149 185 -275 7 -83 19 -103 73 -112 68 -11 124 -56 155 -122 15
-32 30 -65 34 -73 13 -25 63 -19 79 10 12 22 11 32 -8 83 -28 74 -98 146 -174
178 -49 20 -56 26 -56 50 0 45 -37 152 -71 202 -40 61 -101 113 -167 144 -73
34 -187 41 -259 15z"/>
<path d="M10317 7540 c-85 -22 -173 -86 -226 -167 -34 -50 -71 -157 -71 -202
0 -24 -7 -30 -55 -50 -100 -42 -184 -147 -185 -232 0 -41 18 -62 51 -57 24 3
23 3 64 91 31 66 87 111 156 122 22 4 45 13 53 20 7 8 15 46 19 88 13 171 134
297 287 297 89 0 183 -62 221 -145 24 -53 24 -129 -1 -184 -18 -39 -19 -46 -6
-66 9 -14 38 -30 72 -41 123 -38 232 -135 290 -257 80 -171 62 -344 -53 -505
-57 -81 -54 -103 17 -127 158 -52 248 -204 206 -346 -29 -103 -114 -180 -223
-202 -70 -14 -93 -30 -93 -63 0 -18 11 -29 43 -45 59 -30 86 -57 93 -94 13
-71 -56 -133 -132 -119 -19 3 -37 10 -40 15 -3 5 -19 9 -35 9 -21 0 -32 -7
-41 -24 -14 -32 -6 -52 33 -75 77 -47 195 -29 260 39 65 68 72 162 20 247
l-20 31 32 13 c17 7 61 43 98 79 72 71 103 135 115 233 14 118 -60 265 -170
339 -33 23 -62 42 -64 43 -1 1 16 38 38 81 155 302 31 656 -281 800 l-57 26
10 37 c25 90 -16 225 -92 301 -80 80 -221 118 -333 90z"/>
<path d="M5005 7466 c-69 -22 -182 -84 -204 -112 -21 -26 -21 -33 -21 -581 0
-363 4 -561 10 -574 12 -22 59 -26 78 -7 9 9 12 146 12 555 l0 543 38 25 c42
28 140 65 171 65 17 0 19 -5 14 -34 -4 -29 -1 -37 20 -51 33 -21 58 -9 81 39
29 61 18 108 -31 134 -28 15 -117 14 -168 -2z"/>
<path d="M6809 7451 c-32 -33 -36 -64 -15 -116 20 -47 50 -61 83 -40 22 14 24
22 20 52 l-6 35 42 -6 c23 -4 75 -23 115 -42 l72 -35 0 -547 c0 -413 3 -551
12 -560 19 -19 66 -15 78 7 6 13 10 211 10 574 0 635 9 578 -99 636 -88 46
-166 71 -228 71 -47 0 -59 -4 -84 -29z"/>
<path d="M3523 7402 c-6 -4 -78 -112 -158 -241 -157 -251 -167 -276 -112 -295
22 -8 31 -6 46 9 28 30 301 473 301 490 0 15 -37 45 -55 45 -5 0 -15 -4 -22
-8z"/>
<path d="M8422 7394 c-12 -8 -22 -21 -22 -29 0 -17 273 -460 301 -490 15 -15
24 -17 46 -9 55 19 45 44 -113 295 -80 129 -151 237 -158 241 -17 11 -29 10
-54 -8z"/>
<path d="M2916 7304 c-33 -32 -19 -56 104 -179 114 -113 121 -119 147 -109 20
7 29 17 31 38 3 25 -11 44 -115 148 -65 65 -125 118 -135 118 -9 0 -24 -7 -32
-16z"/>
<path d="M8917 7202 c-104 -104 -118 -123 -115 -148 2 -21 11 -31 31 -38 26
-10 33 -4 147 109 81 80 120 127 120 142 0 26 -25 53 -48 53 -10 0 -70 -53
-135 -118z"/>
<path d="M3993 7235 c-138 -31 -379 -152 -402 -202 -8 -17 -11 -284 -11 -901
0 -955 -2 -922 54 -922 52 0 50 -32 48 904 l-2 872 53 31 c170 103 407 166
407 109 0 -31 -35 -46 -112 -46 -42 0 -90 -3 -108 -6 -39 -8 -58 -41 -41 -73
11 -19 20 -21 119 -21 59 0 123 5 143 10 65 18 117 126 88 185 -30 62 -124 86
-236 60z"/>
<path d="M7833 7234 c-12 -3 -34 -16 -48 -30 -25 -23 -27 -30 -21 -72 9 -65
37 -114 77 -134 27 -14 59 -18 151 -18 109 0 118 1 129 21 8 15 8 28 1 44 -12
26 -52 35 -159 35 -67 0 -74 2 -89 26 -15 22 -15 27 -3 35 40 26 249 -35 377
-110 l72 -42 -2 -873 c-2 -938 -4 -906 48 -906 56 0 55 -32 52 935 l-3 887
-38 34 c-57 48 -180 109 -282 139 -86 25 -216 39 -262 29z"/>
<path d="M2742 6910 c-151 -40 -551 -221 -572 -259 -7 -14 -9 -426 -8 -1326 3
-1148 5 -1307 18 -1315 21 -13 54 -12 68 2 9 9 12 311 12 1299 l0 1287 58 32
c182 99 379 172 510 190 91 12 122 8 122 -19 0 -44 -22 -54 -141 -61 -63 -4
-122 -10 -131 -14 -25 -11 -32 -44 -14 -70 15 -24 17 -24 143 -19 150 6 187
19 221 78 33 58 27 139 -14 171 -56 46 -156 54 -272 24z"/>
<path d="M9055 6919 c-22 -5 -53 -20 -69 -32 -41 -33 -47 -114 -14 -171 40
-68 56 -74 211 -79 136 -4 138 -4 153 19 18 27 11 61 -14 68 -27 9 -242 27
-251 22 -4 -3 -8 0 -9 7 0 7 -4 22 -7 34 -27 86 263 25 546 -116 l134 -67 3
-1289 c1 -932 5 -1292 13 -1302 6 -7 25 -13 40 -13 22 0 32 6 39 26 14 36 14
2599 0 2625 -21 39 -424 220 -576 259 -82 21 -134 23 -199 9z"/>
<path d="M4977 6700 c-40 -12 -57 -29 -57 -55 0 -37 23 -48 85 -40 50 6 57 4
80 -19 33 -33 33 -81 0 -130 -39 -58 -29 -96 26 -96 24 0 28 -5 31 -32 4 -43
47 -61 77 -34 32 29 36 70 12 120 -16 33 -20 54 -15 84 11 70 -32 154 -95 186
-36 19 -110 27 -144 16z"/>
<path d="M6945 6706 c-5 -3 -22 -7 -37 -10 -74 -16 -136 -117 -124 -200 6 -35
3 -51 -14 -77 -26 -43 -25 -79 1 -113 35 -45 89 -30 89 26 0 24 4 28 28 28 56
0 68 43 27 92 -34 41 -34 100 0 134 23 23 30 25 80 19 38 -5 60 -3 70 5 22 18
18 57 -7 74 -23 15 -94 29 -113 22z"/>
<path d="M4366 6589 c-87 -21 -170 -71 -241 -144 -57 -58 -88 -80 -165 -118
-117 -56 -200 -128 -200 -173 0 -68 49 -71 110 -8 54 55 110 89 193 118 50 17
68 30 97 68 85 112 181 159 335 164 81 3 102 6 112 20 18 24 16 49 -3 65 -20
16 -183 22 -238 8z"/>
<path d="M7430 6593 c-35 -7 -50 -21 -50 -48 0 -37 23 -46 127 -49 160 -5 223
-39 360 -198 13 -14 38 -29 55 -32 61 -12 139 -55 197 -111 61 -58 80 -65 105
-39 48 48 -30 137 -184 212 -74 35 -109 60 -160 111 -74 75 -158 124 -251 146
-61 14 -146 17 -199 8z"/>
<path d="M3399 6548 c-10 -13 -41 -54 -68 -92 l-49 -68 -7 48 c-11 83 -15 94
-39 105 -31 14 -66 -4 -66 -34 0 -12 7 -98 16 -192 17 -179 28 -215 67 -215
42 0 49 13 46 87 l-3 70 51 59 c55 65 143 190 143 205 0 15 -39 49 -56 49 -8
0 -24 -10 -35 -22z"/>
<path d="M8532 6554 c-12 -8 -22 -21 -22 -28 0 -20 71 -125 136 -202 l58 -68
-3 -70 c-3 -73 4 -86 45 -86 38 0 48 27 65 193 24 218 24 234 -2 248 -16 8
-28 8 -45 0 -24 -11 -28 -22 -39 -105 l-7 -48 -49 68 c-89 124 -95 128 -137
98z"/>
<path d="M1713 6528 c-6 -7 -31 -51 -56 -98 -26 -47 -51 -91 -56 -99 -8 -12
-25 0 -84 56 -89 84 -173 143 -204 143 -23 0 -43 -26 -43 -54 0 -9 28 -37 63
-64 34 -26 94 -78 133 -115 l72 -68 -21 -49 -20 -49 46 -108 c25 -59 49 -126
53 -148 3 -22 11 -46 17 -52 13 -17 62 -16 76 1 18 21 -3 124 -46 224 -19 45
-32 89 -29 97 3 8 43 81 89 162 46 82 87 158 91 170 13 41 -55 84 -81 51z"/>
<path d="M10220 6520 c-11 -11 -20 -25 -20 -31 0 -6 43 -87 95 -179 52 -92 95
-172 95 -176 0 -5 -16 -45 -35 -91 -43 -100 -63 -196 -45 -218 15 -18 64 -20
77 -2 6 6 14 30 17 52 4 22 28 89 53 148 l46 108 -20 49 -20 48 71 70 c39 38
97 88 129 111 66 48 74 62 59 97 -16 34 -47 31 -107 -10 -58 -39 -164 -130
-183 -158 -7 -10 -17 -18 -21 -18 -4 0 -33 47 -65 104 -66 121 -86 136 -126
96z"/>
<path d="M5315 6510 c-23 -25 -13 -68 18 -75 12 -3 321 -4 687 -3 l665 3 10
29 c8 24 6 31 -14 47 -22 18 -50 19 -686 19 -645 0 -662 -1 -680 -20z"/>
<path d="M2852 6448 c-19 -19 -14 -56 11 -72 27 -17 164 -56 198 -56 31 0 49
17 49 46 0 31 -17 41 -111 69 -94 28 -129 31 -147 13z"/>
<path d="M8997 6435 c-87 -27 -107 -39 -107 -65 0 -58 31 -63 159 -26 100 29
119 44 105 83 -13 37 -54 39 -157 8z"/>
<path d="M4562 6384 c-28 -19 -28 -44 -1 -78 33 -41 56 -50 85 -31 32 21 30
47 -7 90 -35 39 -45 42 -77 19z"/>
<path d="M7362 6367 c-38 -39 -41 -71 -8 -92 29 -19 52 -10 85 31 26 33 27 56
3 77 -27 25 -44 21 -80 -16z"/>
<path d="M4376 6301 c-12 -14 -16 -29 -11 -52 8 -47 -6 -63 -51 -61 -61 2 -90
-39 -64 -88 12 -23 4 -47 -20 -55 -26 -8 -47 4 -54 31 -9 34 -49 58 -74 45
-27 -14 -32 -34 -21 -74 30 -110 176 -144 246 -57 7 8 18 33 24 56 8 32 18 45
45 57 52 25 76 71 71 136 -5 75 -51 106 -91 62z"/>
<path d="M7555 6306 c-13 -9 -19 -29 -22 -67 -5 -65 19 -111 71 -136 27 -13
37 -25 45 -59 8 -29 23 -52 48 -74 34 -28 43 -31 91 -27 43 3 59 10 87 37 45
43 61 95 40 127 -26 39 -79 24 -90 -26 -7 -34 -35 -47 -65 -31 -24 13 -23 12
-8 61 15 53 -7 79 -64 77 -47 -2 -61 14 -53 61 10 56 -36 89 -80 57z"/>
<path d="M3500 4848 c-921 -737 -1679 -1349 -1684 -1359 -11 -24 18 -59 49
-59 30 0 -89 -93 1805 1425 261 209 724 580 1028 824 303 243 552 448 552 454
0 24 -31 57 -53 57 -14 0 -637 -493 -1697 -1342z"/>
<path d="M6764 6165 c-12 -18 -15 -31 -8 -40 5 -8 239 -197 519 -422 689 -552
2049 -1642 2482 -1990 238 -190 361 -283 376 -283 13 0 32 9 42 20 16 17 16
24 6 43 -20 35 -3345 2692 -3375 2695 -18 2 -30 -4 -42 -23z"/>
<path d="M3268 5990 c-147 -25 -273 -104 -345 -217 -38 -60 -58 -72 -168 -103
-161 -45 -257 -102 -309 -185 -24 -37 -32 -43 -47 -35 -29 16 -69 -7 -69 -41
0 -21 13 -38 54 -73 78 -67 126 -61 126 16 0 46 18 83 57 119 41 39 81 57 243
114 l145 50 50 73 c85 123 193 182 335 182 83 0 110 12 110 49 0 44 -85 67
-182 51z"/>
<path d="M3905 5977 c-13 -20 -13 -33 -1 -100 14 -84 27 -107 60 -107 47 0 57
45 35 152 -16 77 -62 104 -94 55z"/>
<path d="M8027 5988 c-30 -23 -49 -182 -25 -206 17 -17 53 -15 68 3 7 9 19 50
26 92 12 67 12 80 -1 100 -17 26 -42 29 -68 11z"/>
<path d="M8620 5993 c-43 -5 -70 -28 -70 -59 0 -33 14 -38 120 -44 150 -9 252
-67 334 -193 l41 -62 145 -50 c80 -28 163 -61 186 -72 56 -30 102 -84 109
-130 11 -75 18 -88 51 -91 25 -2 41 6 82 43 50 45 62 74 44 101 -12 18 -52 27
-67 14 -11 -9 -17 -6 -29 17 -45 87 -157 158 -321 203 -110 31 -130 42 -168
103 -93 144 -291 239 -457 220z"/>
<path d="M5966 5894 c-9 -8 -16 -20 -16 -25 0 -5 -13 -86 -30 -179 -38 -216
-39 -247 -4 -260 34 -13 123 -13 162 1 16 5 32 18 35 28 8 31 -63 414 -80 434
-20 21 -47 22 -67 1z"/>
<path d="M1306 5811 c-37 -41 -20 -60 129 -147 l140 -82 5 -156 c4 -125 8
-159 20 -166 20 -13 37 -12 61 0 18 10 19 23 19 190 l0 179 -32 24 c-42 31
-276 163 -304 171 -14 4 -27 0 -38 -13z"/>
<path d="M10650 5823 c-25 -9 -263 -144 -297 -170 l-33 -24 0 -179 c0 -167 1
-180 19 -190 24 -12 41 -13 61 0 12 7 16 41 20 165 l5 157 140 81 c128 75 140
85 140 111 0 31 -30 57 -55 49z"/>
<path d="M3304 5578 c-19 -16 -25 -27 -21 -47 7 -38 -17 -87 -52 -105 -40 -21
-60 -20 -96 4 -67 44 -99 20 -89 -68 7 -68 -3 -95 -46 -117 -42 -22 -82 -19
-124 10 -69 47 -95 29 -113 -78 -6 -38 -16 -74 -22 -80 -19 -19 -41 1 -41 37
0 27 -6 40 -25 52 -23 15 -27 15 -50 0 -28 -18 -31 -43 -14 -110 16 -66 46
-97 100 -103 41 -5 50 -2 82 27 25 21 42 49 54 86 13 41 21 53 32 49 97 -37
207 11 252 109 10 23 19 49 19 60 0 13 5 17 20 13 31 -8 102 12 137 39 59 45
93 138 73 198 -14 42 -41 51 -76 24z"/>
<path d="M8639 5590 c-26 -15 -32 -74 -14 -135 11 -40 26 -62 56 -88 42 -36
110 -60 145 -51 18 5 22 0 28 -27 20 -99 119 -178 209 -166 24 3 50 9 59 12
11 5 18 -4 26 -35 20 -79 70 -130 128 -130 65 0 110 55 121 149 5 45 3 50 -21
66 -24 16 -28 16 -51 1 -19 -12 -25 -25 -25 -52 0 -36 -22 -56 -41 -37 -6 6
-16 42 -22 80 -18 108 -44 125 -114 77 -51 -35 -116 -30 -151 12 -22 25 -24
34 -18 92 10 94 -18 116 -91 71 -31 -19 -39 -20 -74 -10 -49 15 -71 47 -73
107 -2 61 -35 88 -77 64z"/>
<path d="M2002 5304 c-26 -18 -28 -38 -7 -88 20 -48 57 -66 85 -41 11 10 20
26 20 35 0 30 -29 89 -49 100 -25 13 -22 13 -49 -6z"/>
<path d="M9938 5303 c-19 -23 -38 -69 -38 -92 0 -10 9 -26 20 -36 28 -25 65
-7 85 41 20 48 19 67 -3 87 -24 22 -45 21 -64 0z"/>
<path d="M5862 5282 c-12 -8 -62 -259 -62 -313 0 -55 15 -59 200 -59 225 0
215 -11 179 209 -30 179 -22 171 -177 171 -70 0 -133 -4 -140 -8z m215 -167
c6 -38 12 -76 12 -82 1 -10 -23 -13 -89 -13 -49 0 -90 3 -90 7 0 12 21 138 26
151 3 9 22 12 66 10 l63 -3 12 -70z"/>
<path d="M1741 5184 c-78 -21 -145 -61 -204 -120 -49 -50 -51 -51 -86 -42 -49
14 -139 4 -194 -20 -58 -26 -127 -96 -127 -130 0 -26 24 -51 50 -52 9 0 34 19
55 41 67 69 141 87 225 53 49 -20 82 -13 100 22 8 14 38 48 67 74 60 55 148
90 225 90 40 0 50 4 64 25 15 23 15 27 0 50 -14 22 -24 25 -69 24 -28 0 -76
-7 -106 -15z"/>
<path d="M10084 5175 c-15 -23 -15 -27 0 -50 14 -21 24 -25 64 -25 77 0 165
-35 225 -90 29 -26 59 -60 67 -74 18 -35 51 -42 100 -22 46 18 106 21 147 5
15 -5 49 -31 75 -56 45 -44 48 -46 77 -33 24 9 31 19 31 39 0 35 -63 101 -124
131 -54 26 -146 36 -197 22 -35 -9 -38 -8 -82 38 -83 85 -207 140 -319 140
-40 0 -50 -4 -64 -25z"/>
<path d="M2415 5070 c-15 -17 -16 -25 -6 -64 6 -25 11 -65 11 -89 0 -48 21
-77 57 -77 33 0 45 25 45 93 -1 123 -56 194 -107 137z"/>
<path d="M9523 5082 c-23 -15 -45 -85 -45 -149 0 -69 12 -93 47 -93 33 0 55
31 55 79 0 23 5 62 11 87 10 39 9 47 -6 64 -19 21 -41 25 -62 12z"/>
<path d="M1882 4884 c-26 -18 -29 -56 -6 -75 11 -9 14 -22 9 -47 -12 -64 57
-99 91 -47 12 19 15 39 12 77 -4 42 -11 57 -37 80 -36 33 -39 33 -69 12z"/>
<path d="M10049 4872 c-27 -24 -33 -37 -37 -83 -4 -48 -1 -59 21 -85 l25 -29
29 21 c24 18 28 28 25 62 -1 25 3 44 13 52 22 18 18 57 -7 74 -30 21 -33 21
-69 -12z"/>
<path d="M1508 4837 c-60 -17 -94 -40 -118 -80 -28 -44 -26 -83 4 -102 31 -20
63 -6 72 31 3 13 16 31 27 39 42 30 189 12 212 -25 11 -17 4 -20 -79 -29 -129
-15 -145 -50 -67 -138 28 -32 59 -80 71 -112 38 -99 52 -113 94 -93 40 18 35
65 -17 165 l-44 85 40 0 c99 2 148 107 86 185 -49 63 -188 100 -281 74z"/>
<path d="M10324 4832 c-68 -24 -101 -46 -124 -85 -31 -50 -26 -93 14 -133 29
-29 41 -34 81 -34 l46 0 -26 -42 c-39 -64 -57 -108 -63 -155 -4 -38 -2 -43 21
-54 33 -15 54 -6 69 28 41 100 60 134 101 179 26 29 47 61 47 72 0 32 -46 62
-95 62 -141 0 -136 54 7 67 81 8 104 -1 127 -46 24 -46 46 -57 77 -36 31 20
31 61 2 105 -50 73 -185 108 -284 72z"/>
<path d="M3968 4743 c-19 -3 -68 -46 -161 -141 -565 -579 -783 -807 -792 -828
-7 -19 -5 -28 10 -44 19 -18 40 -19 453 -21 l433 -2 25 24 c14 13 58 71 98
129 39 58 183 266 320 463 227 326 248 361 240 385 -5 15 -20 29 -34 33 -26 7
-546 9 -592 2z m411 -205 c-39 -57 -168 -244 -287 -415 l-216 -313 -349 0
-349 0 319 328 c176 180 357 366 403 415 l82 87 234 0 235 0 -72 -102z"/>
<path d="M5111 4737 c-19 -10 -62 -104 -218 -477 -106 -256 -196 -475 -199
-488 -4 -15 0 -30 11 -42 17 -19 34 -20 456 -20 481 0 461 -3 472 62 25 139
126 929 121 943 -4 9 -17 20 -29 25 -38 15 -586 12 -614 -3z m539 -103 c0 -3
-25 -187 -55 -409 -30 -221 -55 -405 -55 -409 0 -3 -162 -6 -360 -6 -198 0
-360 3 -360 7 0 5 225 551 324 786 l16 37 245 0 c135 0 245 -3 245 -6z"/>
<path d="M6272 4740 c-12 -5 -25 -16 -28 -24 -3 -8 24 -228 60 -489 36 -261
66 -477 66 -480 0 -3 7 -13 16 -21 14 -14 69 -16 453 -16 412 0 439 1 454 18
10 10 17 25 17 33 0 8 -90 228 -199 489 -159 383 -203 477 -222 487 -29 15
-580 17 -617 3z m734 -499 c90 -217 166 -403 170 -413 5 -17 -12 -18 -355 -18
-282 0 -361 3 -361 13 0 6 -25 189 -55 406 -30 217 -55 398 -55 403 0 4 111 7
246 6 l246 -3 164 -394z"/>
<path d="M7433 4740 c-12 -5 -25 -20 -29 -34 -5 -21 22 -66 167 -273 264 -379
327 -469 400 -579 106 -159 48 -144 554 -144 406 0 433 1 448 18 10 10 17 26
17 36 0 10 -145 167 -322 349 -178 183 -384 395 -458 472 -74 77 -146 145
-160 152 -30 15 -582 17 -617 3z m678 -197 c52 -54 233 -241 403 -415 l308
-318 -349 0 -349 0 -216 313 c-119 171 -248 358 -288 415 l-71 102 234 0 233
0 95 -97z"/>
<path d="M1447 4472 c-24 -26 -22 -36 18 -88 20 -26 33 -49 30 -52 -2 -3 -31
11 -62 30 -63 40 -93 39 -104 -3 -50 -184 -52 -208 -17 -228 26 -15 29 -14 47
4 11 11 26 40 34 65 9 26 21 44 29 43 7 -1 39 -10 71 -18 53 -15 60 -15 83 0
21 13 24 23 24 71 0 66 -20 118 -62 162 -36 36 -67 41 -91 14z"/>
<path d="M10462 4458 c-42 -44 -62 -96 -62 -162 0 -48 3 -58 24 -71 23 -15 30
-15 83 0 32 8 64 17 71 18 8 1 20 -17 29 -43 19 -58 44 -84 72 -75 38 12 44
39 21 111 -11 36 -20 79 -20 95 0 27 -30 69 -49 69 -5 0 -32 -16 -60 -35 -28
-19 -55 -35 -61 -35 -14 0 12 50 39 74 26 23 27 48 3 69 -28 25 -55 21 -90
-15z"/>
</g>
</svg>
